<?xml version="1.0" standalone="no"?><!DOCTYPE svg PUBLIC "-//W3C//DTD SVG 1.1//EN" "http://www.w3.org/Graphics/SVG/1.1/DTD/svg11.dtd"><svg t="1612167062166" class="icon" viewBox="0 0 1024 1024" version="1.1" xmlns="http://www.w3.org/2000/svg" p-id="2856" xmlns:xlink="http://www.w3.org/1999/xlink" width="200" height="200"><defs><style type="text/css"></style></defs><path d="M511.985779 0.028444c-282.701481 0-511.957335 229.255854-511.957335 511.985778s229.255854 511.985778 511.957335 511.985778c282.729924 0 511.985778-229.22741 511.985778-511.985778 0-282.729924-229.255854-511.985778-511.985778-511.985778z m-123.900558 379.267687a24.802867 24.802867 0 0 1-24.802867-24.774423 31.003583 31.003583 0 0 0-61.978723 0 24.774423 24.774423 0 0 1-49.605733 0 80.694647 80.694647 0 0 1 80.609316-80.609317 80.666204 80.666204 0 0 1 80.55243 80.609317 24.745979 24.745979 0 0 1-24.774423 24.774423z m357.593622 0a24.774423 24.774423 0 0 1-24.774423-24.774423 31.003583 31.003583 0 0 0-62.007166 0 24.802867 24.802867 0 0 1-49.57729 0 80.666204 80.666204 0 0 1 80.552429-80.609317 80.694647 80.694647 0 0 1 80.63776 80.609317 24.745979 24.745979 0 0 1-24.83131 24.774423z m-232.100219 150.950473c150.694481 0 269.588956 26.338824 269.588955 56.204661 0 140.056554-118.894475 253.632066-269.588955 253.632066-150.60915 0-272.746201-113.518624-272.746202-253.632066 0-23.522902 122.137052-56.204661 272.746202-56.204661z" p-id="2857"></path></svg>