<?xml version="1.0" standalone="no"?><!DOCTYPE svg PUBLIC "-//W3C//DTD SVG 1.1//EN" "http://www.w3.org/Graphics/SVG/1.1/DTD/svg11.dtd"><svg t="1612072341125" class="icon" viewBox="0 0 1024 1024" version="1.1" xmlns="http://www.w3.org/2000/svg" p-id="2030" xmlns:xlink="http://www.w3.org/1999/xlink" width="200" height="200"><defs><style type="text/css"></style></defs><path d="M1007.825455 362.123636l-465.454546-169.890909a76.8 76.8 0 0 0-59.112727 0L16.407273 362.123636c-21.876364 10.24-21.876364 59.112727 0 67.025455l87.505454 31.650909a178.734545 178.734545 0 0 0-21.410909 75.403636v3.258182a41.425455 41.425455 0 0 0-23.738182 36.770909 40.029091 40.029091 0 0 0 15.36 31.185455 1237.178182 1237.178182 0 0 1-33.978181 180.596363s-7.447273 35.84 9.774545 36.77091 108.916364 0 108.916364 0 19.083636-5.585455 11.170909-35.84a744.727273 744.727273 0 0 1-33.978182-181.061819 40.029091 40.029091 0 0 0 15.825454-31.650909 40.96 40.96 0 0 0-18.152727-33.512727 102.4 102.4 0 0 1 16.290909-65.163636l333.265455 121.483636a76.334545 76.334545 0 0 0 59.112727 0l465.454546-169.890909c21.410909-7.912727 21.876364-56.785455 0-67.025455z" p-id="2031"></path><path d="M482.792727 671.185455l-261.12-84.247273v214.574545A558.545455 558.545455 0 0 0 512.116364 874.589091a558.545455 558.545455 0 0 0 290.443636-73.076364v-214.574545l-260.654545 84.247273a86.109091 86.109091 0 0 1-59.112728 0z" p-id="2032"></path></svg>